<mxfile host="app.diagrams.net" modified="2024-06-11T03:43:36.086Z" agent="Mozilla/5.0 (Windows NT 10.0; Win64; x64; rv:126.0) Gecko/20100101 Firefox/126.0" etag="rQ6FeKHvxxgoZzZ1JBO-" version="24.5.2" type="device">
  <diagram name="Page-1" id="iW3yQBBExaVnJd8Yr-Wd">
    <mxGraphModel dx="2074" dy="1106" grid="1" gridSize="10" guides="1" tooltips="1" connect="1" arrows="1" fold="1" page="1" pageScale="1" pageWidth="850" pageHeight="1100" math="0" shadow="0">
      <root>
        <mxCell id="0" />
        <mxCell id="1" parent="0" />
        <mxCell id="FArzSYG2MaIiURq2nYFA-11" value="" style="ellipse;whiteSpace=wrap;html=1;aspect=fixed;" vertex="1" parent="1">
          <mxGeometry x="40" y="40" width="40" height="40" as="geometry" />
        </mxCell>
        <mxCell id="FArzSYG2MaIiURq2nYFA-12" value="= class object" style="text;html=1;align=center;verticalAlign=middle;whiteSpace=wrap;rounded=0;" vertex="1" parent="1">
          <mxGeometry x="90" y="45" width="90" height="30" as="geometry" />
        </mxCell>
        <mxCell id="FArzSYG2MaIiURq2nYFA-13" value="" style="rounded=0;whiteSpace=wrap;html=1;" vertex="1" parent="1">
          <mxGeometry x="40" y="90" width="40" height="40" as="geometry" />
        </mxCell>
        <mxCell id="FArzSYG2MaIiURq2nYFA-14" value="= concept" style="text;html=1;align=center;verticalAlign=middle;whiteSpace=wrap;rounded=0;" vertex="1" parent="1">
          <mxGeometry x="80" y="95" width="90" height="30" as="geometry" />
        </mxCell>
        <mxCell id="FArzSYG2MaIiURq2nYFA-25" value="&lt;div&gt;Below is internal &amp;nbsp; invisible to player&lt;/div&gt;" style="endArrow=none;dashed=1;html=1;rounded=0;" edge="1" parent="1">
          <mxGeometry width="50" height="50" relative="1" as="geometry">
            <mxPoint x="360" y="240" as="sourcePoint" />
            <mxPoint x="840" y="240" as="targetPoint" />
          </mxGeometry>
        </mxCell>
        <mxCell id="FArzSYG2MaIiURq2nYFA-27" value="" style="group" vertex="1" connectable="0" parent="1">
          <mxGeometry x="430" y="40" width="330" height="170" as="geometry" />
        </mxCell>
        <mxCell id="FArzSYG2MaIiURq2nYFA-15" value="" style="rounded=0;whiteSpace=wrap;html=1;" vertex="1" parent="FArzSYG2MaIiURq2nYFA-27">
          <mxGeometry width="330" height="170" as="geometry" />
        </mxCell>
        <mxCell id="FArzSYG2MaIiURq2nYFA-22" style="edgeStyle=orthogonalEdgeStyle;rounded=0;orthogonalLoop=1;jettySize=auto;html=1;exitX=1;exitY=0.5;exitDx=0;exitDy=0;entryX=0;entryY=0.5;entryDx=0;entryDy=0;" edge="1" parent="FArzSYG2MaIiURq2nYFA-27" source="FArzSYG2MaIiURq2nYFA-16" target="FArzSYG2MaIiURq2nYFA-18">
          <mxGeometry relative="1" as="geometry" />
        </mxCell>
        <mxCell id="FArzSYG2MaIiURq2nYFA-23" style="edgeStyle=orthogonalEdgeStyle;rounded=0;orthogonalLoop=1;jettySize=auto;html=1;exitX=1;exitY=0.5;exitDx=0;exitDy=0;entryX=0;entryY=0.5;entryDx=0;entryDy=0;" edge="1" parent="FArzSYG2MaIiURq2nYFA-27" source="FArzSYG2MaIiURq2nYFA-16" target="FArzSYG2MaIiURq2nYFA-19">
          <mxGeometry relative="1" as="geometry" />
        </mxCell>
        <mxCell id="FArzSYG2MaIiURq2nYFA-16" value="&lt;div&gt;Skill&lt;/div&gt;&lt;div&gt;Node&lt;br&gt;&lt;/div&gt;" style="ellipse;whiteSpace=wrap;html=1;aspect=fixed;" vertex="1" parent="FArzSYG2MaIiURq2nYFA-27">
          <mxGeometry x="30" y="60" width="60" height="60" as="geometry" />
        </mxCell>
        <mxCell id="FArzSYG2MaIiURq2nYFA-21" style="edgeStyle=orthogonalEdgeStyle;rounded=0;orthogonalLoop=1;jettySize=auto;html=1;exitX=1;exitY=0.5;exitDx=0;exitDy=0;entryX=0;entryY=0.5;entryDx=0;entryDy=0;" edge="1" parent="FArzSYG2MaIiURq2nYFA-27" source="FArzSYG2MaIiURq2nYFA-18" target="FArzSYG2MaIiURq2nYFA-20">
          <mxGeometry relative="1" as="geometry" />
        </mxCell>
        <mxCell id="FArzSYG2MaIiURq2nYFA-18" value="&lt;div&gt;Skill&lt;/div&gt;&lt;div&gt;Node&lt;br&gt;&lt;/div&gt;" style="ellipse;whiteSpace=wrap;html=1;aspect=fixed;" vertex="1" parent="FArzSYG2MaIiURq2nYFA-27">
          <mxGeometry x="140" y="30" width="60" height="60" as="geometry" />
        </mxCell>
        <mxCell id="FArzSYG2MaIiURq2nYFA-19" value="&lt;div&gt;Skill&lt;/div&gt;&lt;div&gt;Node&lt;br&gt;&lt;/div&gt;" style="ellipse;whiteSpace=wrap;html=1;aspect=fixed;" vertex="1" parent="FArzSYG2MaIiURq2nYFA-27">
          <mxGeometry x="140" y="100" width="60" height="60" as="geometry" />
        </mxCell>
        <mxCell id="FArzSYG2MaIiURq2nYFA-20" value="&lt;div&gt;Skill&lt;/div&gt;&lt;div&gt;Node&lt;br&gt;&lt;/div&gt;" style="ellipse;whiteSpace=wrap;html=1;aspect=fixed;" vertex="1" parent="FArzSYG2MaIiURq2nYFA-27">
          <mxGeometry x="240" y="30" width="60" height="60" as="geometry" />
        </mxCell>
        <mxCell id="FArzSYG2MaIiURq2nYFA-24" value="Skill" style="text;html=1;align=center;verticalAlign=middle;whiteSpace=wrap;rounded=0;" vertex="1" parent="FArzSYG2MaIiURq2nYFA-27">
          <mxGeometry x="135" width="60" height="30" as="geometry" />
        </mxCell>
        <mxCell id="FArzSYG2MaIiURq2nYFA-30" value="" style="group" vertex="1" connectable="0" parent="1">
          <mxGeometry x="40" y="180" width="200" height="270" as="geometry" />
        </mxCell>
        <mxCell id="FArzSYG2MaIiURq2nYFA-17" value="&lt;div&gt;Skill&lt;/div&gt;&lt;div&gt;Node&lt;br&gt;&lt;/div&gt;" style="ellipse;whiteSpace=wrap;html=1;aspect=fixed;" vertex="1" parent="FArzSYG2MaIiURq2nYFA-30">
          <mxGeometry x="70" width="60" height="60" as="geometry" />
        </mxCell>
        <mxCell id="FArzSYG2MaIiURq2nYFA-29" value="&lt;h1 style=&quot;margin-top: 0px;&quot;&gt;Skill Node Types&lt;br&gt;&lt;/h1&gt;&lt;p&gt;- shape: Wraps/precedes an action. Significant modification of how an action works&lt;br&gt;&lt;/p&gt;&lt;p&gt;- trigger: Condition(s) wherein attached nodes activate&lt;br&gt;&lt;/p&gt;&lt;p&gt;- action: Does something interesting&lt;br&gt;&lt;/p&gt;" style="text;html=1;whiteSpace=wrap;overflow=hidden;rounded=0;" vertex="1" parent="FArzSYG2MaIiURq2nYFA-30">
          <mxGeometry y="70" width="200" height="200" as="geometry" />
        </mxCell>
        <mxCell id="FArzSYG2MaIiURq2nYFA-8" value="" style="rounded=0;whiteSpace=wrap;html=1;" vertex="1" parent="1">
          <mxGeometry x="490" y="270" width="220" height="140" as="geometry" />
        </mxCell>
        <mxCell id="FArzSYG2MaIiURq2nYFA-4" style="edgeStyle=orthogonalEdgeStyle;rounded=0;orthogonalLoop=1;jettySize=auto;html=1;exitX=1;exitY=0.5;exitDx=0;exitDy=0;entryX=0;entryY=0.5;entryDx=0;entryDy=0;" edge="1" parent="1" source="FArzSYG2MaIiURq2nYFA-1" target="FArzSYG2MaIiURq2nYFA-2">
          <mxGeometry relative="1" as="geometry" />
        </mxCell>
        <mxCell id="FArzSYG2MaIiURq2nYFA-1" value="Trigger" style="ellipse;whiteSpace=wrap;html=1;aspect=fixed;" vertex="1" parent="1">
          <mxGeometry x="520" y="305" width="40" height="40" as="geometry" />
        </mxCell>
        <mxCell id="FArzSYG2MaIiURq2nYFA-5" style="edgeStyle=orthogonalEdgeStyle;rounded=0;orthogonalLoop=1;jettySize=auto;html=1;exitX=1;exitY=0.5;exitDx=0;exitDy=0;entryX=0;entryY=0.5;entryDx=0;entryDy=0;" edge="1" parent="1" source="FArzSYG2MaIiURq2nYFA-2" target="FArzSYG2MaIiURq2nYFA-3">
          <mxGeometry relative="1" as="geometry" />
        </mxCell>
        <mxCell id="FArzSYG2MaIiURq2nYFA-2" value="Event" style="ellipse;whiteSpace=wrap;html=1;aspect=fixed;" vertex="1" parent="1">
          <mxGeometry x="580" y="305" width="40" height="40" as="geometry" />
        </mxCell>
        <mxCell id="FArzSYG2MaIiURq2nYFA-6" style="edgeStyle=orthogonalEdgeStyle;rounded=0;orthogonalLoop=1;jettySize=auto;html=1;exitX=1;exitY=0.5;exitDx=0;exitDy=0;" edge="1" parent="1" source="FArzSYG2MaIiURq2nYFA-3">
          <mxGeometry relative="1" as="geometry">
            <mxPoint x="700" y="324.94444444444446" as="targetPoint" />
          </mxGeometry>
        </mxCell>
        <mxCell id="FArzSYG2MaIiURq2nYFA-3" value="Trigger" style="ellipse;whiteSpace=wrap;html=1;aspect=fixed;" vertex="1" parent="1">
          <mxGeometry x="640" y="305" width="40" height="40" as="geometry" />
        </mxCell>
        <mxCell id="FArzSYG2MaIiURq2nYFA-9" value="Action Chain" style="text;html=1;align=center;verticalAlign=middle;whiteSpace=wrap;rounded=0;" vertex="1" parent="1">
          <mxGeometry x="560" y="270" width="80" height="30" as="geometry" />
        </mxCell>
        <mxCell id="FArzSYG2MaIiURq2nYFA-34" style="edgeStyle=orthogonalEdgeStyle;rounded=0;orthogonalLoop=1;jettySize=auto;html=1;exitX=0.5;exitY=0;exitDx=0;exitDy=0;entryX=0.5;entryY=1;entryDx=0;entryDy=0;dashed=1;dashPattern=1 1;endArrow=none;endFill=0;startArrow=classic;startFill=1;" edge="1" parent="1" source="FArzSYG2MaIiURq2nYFA-31" target="FArzSYG2MaIiURq2nYFA-2">
          <mxGeometry relative="1" as="geometry" />
        </mxCell>
        <mxCell id="FArzSYG2MaIiURq2nYFA-31" value="mod" style="ellipse;whiteSpace=wrap;html=1;aspect=fixed;" vertex="1" parent="1">
          <mxGeometry x="585" y="360" width="30" height="30" as="geometry" />
        </mxCell>
        <mxCell id="FArzSYG2MaIiURq2nYFA-33" style="edgeStyle=orthogonalEdgeStyle;rounded=0;orthogonalLoop=1;jettySize=auto;html=1;exitX=0.5;exitY=0;exitDx=0;exitDy=0;entryX=0.5;entryY=1;entryDx=0;entryDy=0;dashed=1;dashPattern=1 1;endArrow=none;endFill=0;startArrow=classic;startFill=1;" edge="1" parent="1" source="FArzSYG2MaIiURq2nYFA-32" target="FArzSYG2MaIiURq2nYFA-1">
          <mxGeometry relative="1" as="geometry" />
        </mxCell>
        <mxCell id="FArzSYG2MaIiURq2nYFA-32" value="mod" style="ellipse;whiteSpace=wrap;html=1;aspect=fixed;" vertex="1" parent="1">
          <mxGeometry x="525" y="360" width="30" height="30" as="geometry" />
        </mxCell>
        <mxCell id="FArzSYG2MaIiURq2nYFA-38" style="edgeStyle=orthogonalEdgeStyle;rounded=0;orthogonalLoop=1;jettySize=auto;html=1;exitX=0.5;exitY=0;exitDx=0;exitDy=0;entryX=0.5;entryY=1;entryDx=0;entryDy=0;dashed=1;dashPattern=1 1;endArrow=none;endFill=0;startArrow=classic;startFill=1;" edge="1" parent="1" source="FArzSYG2MaIiURq2nYFA-37" target="FArzSYG2MaIiURq2nYFA-3">
          <mxGeometry relative="1" as="geometry" />
        </mxCell>
        <mxCell id="FArzSYG2MaIiURq2nYFA-37" value="mod" style="ellipse;whiteSpace=wrap;html=1;aspect=fixed;" vertex="1" parent="1">
          <mxGeometry x="645" y="360" width="30" height="30" as="geometry" />
        </mxCell>
        <mxCell id="FArzSYG2MaIiURq2nYFA-49" style="edgeStyle=orthogonalEdgeStyle;rounded=0;orthogonalLoop=1;jettySize=auto;html=1;exitX=0.5;exitY=1;exitDx=0;exitDy=0;entryX=0.5;entryY=0;entryDx=0;entryDy=0;dashed=1;dashPattern=1 1;" edge="1" parent="1" source="FArzSYG2MaIiURq2nYFA-40" target="FArzSYG2MaIiURq2nYFA-48">
          <mxGeometry relative="1" as="geometry" />
        </mxCell>
        <mxCell id="FArzSYG2MaIiURq2nYFA-40" value="Event" style="ellipse;whiteSpace=wrap;html=1;aspect=fixed;" vertex="1" parent="1">
          <mxGeometry x="580" y="440" width="40" height="40" as="geometry" />
        </mxCell>
        <mxCell id="FArzSYG2MaIiURq2nYFA-43" value="&lt;div&gt;Triggers can be combined.&lt;/div&gt;&lt;div&gt;&lt;br&gt;&lt;/div&gt;&lt;div&gt;Compound triggers can be ordered and unordered&lt;br&gt;&lt;/div&gt;" style="text;html=1;align=center;verticalAlign=middle;whiteSpace=wrap;rounded=0;" vertex="1" parent="1">
          <mxGeometry x="310" y="302.5" width="170" height="75" as="geometry" />
        </mxCell>
        <mxCell id="FArzSYG2MaIiURq2nYFA-55" style="edgeStyle=orthogonalEdgeStyle;rounded=0;orthogonalLoop=1;jettySize=auto;html=1;exitX=0.5;exitY=1;exitDx=0;exitDy=0;entryX=0.5;entryY=0;entryDx=0;entryDy=0;dashed=1;dashPattern=1 1;" edge="1" parent="1" source="FArzSYG2MaIiURq2nYFA-48" target="FArzSYG2MaIiURq2nYFA-54">
          <mxGeometry relative="1" as="geometry" />
        </mxCell>
        <mxCell id="FArzSYG2MaIiURq2nYFA-48" value="Actionable" style="ellipse;whiteSpace=wrap;html=1;aspect=fixed;" vertex="1" parent="1">
          <mxGeometry x="570" y="510" width="60" height="60" as="geometry" />
        </mxCell>
        <mxCell id="FArzSYG2MaIiURq2nYFA-85" style="edgeStyle=orthogonalEdgeStyle;rounded=0;orthogonalLoop=1;jettySize=auto;html=1;exitX=0.5;exitY=1;exitDx=0;exitDy=0;entryX=0;entryY=0.5;entryDx=0;entryDy=0;dashed=1;dashPattern=1 1;" edge="1" parent="1" source="FArzSYG2MaIiURq2nYFA-50" target="FArzSYG2MaIiURq2nYFA-83">
          <mxGeometry relative="1" as="geometry" />
        </mxCell>
        <mxCell id="FArzSYG2MaIiURq2nYFA-50" value="Instant" style="ellipse;whiteSpace=wrap;html=1;aspect=fixed;" vertex="1" parent="1">
          <mxGeometry x="450" y="640" width="40" height="40" as="geometry" />
        </mxCell>
        <mxCell id="FArzSYG2MaIiURq2nYFA-72" style="edgeStyle=orthogonalEdgeStyle;rounded=0;orthogonalLoop=1;jettySize=auto;html=1;exitX=0;exitY=0.5;exitDx=0;exitDy=0;entryX=0.5;entryY=0;entryDx=0;entryDy=0;dashed=1;" edge="1" parent="1" source="FArzSYG2MaIiURq2nYFA-51" target="FArzSYG2MaIiURq2nYFA-69">
          <mxGeometry relative="1" as="geometry" />
        </mxCell>
        <mxCell id="FArzSYG2MaIiURq2nYFA-73" style="edgeStyle=orthogonalEdgeStyle;rounded=0;orthogonalLoop=1;jettySize=auto;html=1;exitX=0.5;exitY=1;exitDx=0;exitDy=0;entryX=0.5;entryY=0;entryDx=0;entryDy=0;dashed=1;" edge="1" parent="1" source="FArzSYG2MaIiURq2nYFA-51" target="FArzSYG2MaIiURq2nYFA-70">
          <mxGeometry relative="1" as="geometry" />
        </mxCell>
        <mxCell id="FArzSYG2MaIiURq2nYFA-74" style="edgeStyle=orthogonalEdgeStyle;rounded=0;orthogonalLoop=1;jettySize=auto;html=1;exitX=1;exitY=0.5;exitDx=0;exitDy=0;dashed=1;" edge="1" parent="1" source="FArzSYG2MaIiURq2nYFA-51" target="FArzSYG2MaIiURq2nYFA-71">
          <mxGeometry relative="1" as="geometry" />
        </mxCell>
        <mxCell id="FArzSYG2MaIiURq2nYFA-51" value="Persistent" style="ellipse;whiteSpace=wrap;html=1;aspect=fixed;" vertex="1" parent="1">
          <mxGeometry x="640" y="640" width="40" height="40" as="geometry" />
        </mxCell>
        <mxCell id="FArzSYG2MaIiURq2nYFA-59" style="edgeStyle=orthogonalEdgeStyle;rounded=0;orthogonalLoop=1;jettySize=auto;html=1;exitX=0;exitY=0.5;exitDx=0;exitDy=0;entryX=0.5;entryY=0;entryDx=0;entryDy=0;dashed=1;" edge="1" parent="1" source="FArzSYG2MaIiURq2nYFA-54" target="FArzSYG2MaIiURq2nYFA-50">
          <mxGeometry relative="1" as="geometry" />
        </mxCell>
        <mxCell id="FArzSYG2MaIiURq2nYFA-60" style="edgeStyle=orthogonalEdgeStyle;rounded=0;orthogonalLoop=1;jettySize=auto;html=1;exitX=1;exitY=0.5;exitDx=0;exitDy=0;entryX=0.5;entryY=0;entryDx=0;entryDy=0;dashed=1;" edge="1" parent="1" source="FArzSYG2MaIiURq2nYFA-54" target="FArzSYG2MaIiURq2nYFA-51">
          <mxGeometry relative="1" as="geometry" />
        </mxCell>
        <mxCell id="FArzSYG2MaIiURq2nYFA-54" value="Shape" style="rounded=0;whiteSpace=wrap;html=1;" vertex="1" parent="1">
          <mxGeometry x="570" y="590" width="60" height="30" as="geometry" />
        </mxCell>
        <mxCell id="FArzSYG2MaIiURq2nYFA-61" value="Maybe statuses too" style="text;html=1;align=center;verticalAlign=middle;whiteSpace=wrap;rounded=0;" vertex="1" parent="1">
          <mxGeometry x="685" y="590" width="100" height="65" as="geometry" />
        </mxCell>
        <mxCell id="FArzSYG2MaIiURq2nYFA-62" value="Ex: explosion, melee swing" style="text;html=1;align=center;verticalAlign=middle;whiteSpace=wrap;rounded=0;" vertex="1" parent="1">
          <mxGeometry x="340" y="627.5" width="100" height="65" as="geometry" />
        </mxCell>
        <mxCell id="FArzSYG2MaIiURq2nYFA-80" style="edgeStyle=orthogonalEdgeStyle;rounded=0;orthogonalLoop=1;jettySize=auto;html=1;exitX=0.5;exitY=1;exitDx=0;exitDy=0;entryX=0.5;entryY=0;entryDx=0;entryDy=0;dashed=1;dashPattern=1 1;" edge="1" parent="1" source="FArzSYG2MaIiURq2nYFA-69" target="FArzSYG2MaIiURq2nYFA-75">
          <mxGeometry relative="1" as="geometry" />
        </mxCell>
        <mxCell id="FArzSYG2MaIiURq2nYFA-69" value="Emission" style="ellipse;whiteSpace=wrap;html=1;aspect=fixed;" vertex="1" parent="1">
          <mxGeometry x="547.5" y="720" width="50" height="50" as="geometry" />
        </mxCell>
        <mxCell id="FArzSYG2MaIiURq2nYFA-87" style="rounded=0;orthogonalLoop=1;jettySize=auto;html=1;exitX=0.5;exitY=1;exitDx=0;exitDy=0;entryX=1;entryY=0;entryDx=0;entryDy=0;dashed=1;dashPattern=1 1;" edge="1" parent="1" source="FArzSYG2MaIiURq2nYFA-70" target="FArzSYG2MaIiURq2nYFA-83">
          <mxGeometry relative="1" as="geometry">
            <Array as="points">
              <mxPoint x="660" y="932" />
            </Array>
          </mxGeometry>
        </mxCell>
        <mxCell id="FArzSYG2MaIiURq2nYFA-70" value="Field" style="ellipse;whiteSpace=wrap;html=1;aspect=fixed;" vertex="1" parent="1">
          <mxGeometry x="635" y="720" width="50" height="50" as="geometry" />
        </mxCell>
        <mxCell id="FArzSYG2MaIiURq2nYFA-81" style="edgeStyle=orthogonalEdgeStyle;rounded=0;orthogonalLoop=1;jettySize=auto;html=1;exitX=0.5;exitY=1;exitDx=0;exitDy=0;entryX=0.5;entryY=0;entryDx=0;entryDy=0;dashed=1;dashPattern=1 1;" edge="1" parent="1" source="FArzSYG2MaIiURq2nYFA-71" target="FArzSYG2MaIiURq2nYFA-78">
          <mxGeometry relative="1" as="geometry" />
        </mxCell>
        <mxCell id="FArzSYG2MaIiURq2nYFA-71" value="Summon" style="ellipse;whiteSpace=wrap;html=1;aspect=fixed;" vertex="1" parent="1">
          <mxGeometry x="722.5" y="720" width="50" height="50" as="geometry" />
        </mxCell>
        <mxCell id="FArzSYG2MaIiURq2nYFA-86" style="edgeStyle=orthogonalEdgeStyle;rounded=0;orthogonalLoop=1;jettySize=auto;html=1;exitX=0.5;exitY=1;exitDx=0;exitDy=0;entryX=0.5;entryY=0;entryDx=0;entryDy=0;dashed=1;dashPattern=1 1;" edge="1" parent="1" source="FArzSYG2MaIiURq2nYFA-75" target="FArzSYG2MaIiURq2nYFA-83">
          <mxGeometry relative="1" as="geometry" />
        </mxCell>
        <mxCell id="FArzSYG2MaIiURq2nYFA-75" value="Projectile" style="ellipse;whiteSpace=wrap;html=1;aspect=fixed;" vertex="1" parent="1">
          <mxGeometry x="547.5" y="800" width="50" height="50" as="geometry" />
        </mxCell>
        <mxCell id="FArzSYG2MaIiURq2nYFA-88" style="edgeStyle=orthogonalEdgeStyle;rounded=0;orthogonalLoop=1;jettySize=auto;html=1;exitX=0.5;exitY=1;exitDx=0;exitDy=0;entryX=1;entryY=0.5;entryDx=0;entryDy=0;dashed=1;dashPattern=1 1;" edge="1" parent="1" source="FArzSYG2MaIiURq2nYFA-78" target="FArzSYG2MaIiURq2nYFA-83">
          <mxGeometry relative="1" as="geometry" />
        </mxCell>
        <mxCell id="FArzSYG2MaIiURq2nYFA-78" value="Summonable" style="ellipse;whiteSpace=wrap;html=1;aspect=fixed;" vertex="1" parent="1">
          <mxGeometry x="722.5" y="800" width="50" height="50" as="geometry" />
        </mxCell>
        <mxCell id="FArzSYG2MaIiURq2nYFA-82" value="minions, totems, structures, etc" style="text;html=1;align=center;verticalAlign=middle;whiteSpace=wrap;rounded=0;" vertex="1" parent="1">
          <mxGeometry x="785" y="730" width="60" height="30" as="geometry" />
        </mxCell>
        <mxCell id="FArzSYG2MaIiURq2nYFA-83" value="Effect" style="ellipse;whiteSpace=wrap;html=1;aspect=fixed;" vertex="1" parent="1">
          <mxGeometry x="532.5" y="920" width="80" height="80" as="geometry" />
        </mxCell>
        <mxCell id="FArzSYG2MaIiURq2nYFA-84" value="damage, move, etc" style="text;html=1;align=center;verticalAlign=middle;whiteSpace=wrap;rounded=0;" vertex="1" parent="1">
          <mxGeometry x="542.5" y="1020" width="60" height="30" as="geometry" />
        </mxCell>
        <mxCell id="FArzSYG2MaIiURq2nYFA-89" style="edgeStyle=orthogonalEdgeStyle;rounded=0;orthogonalLoop=1;jettySize=auto;html=1;exitX=0.5;exitY=1;exitDx=0;exitDy=0;entryX=0.5;entryY=0;entryDx=0;entryDy=0;dashed=1;dashPattern=1 1;" edge="1" parent="1" source="FArzSYG2MaIiURq2nYFA-19" target="FArzSYG2MaIiURq2nYFA-9">
          <mxGeometry relative="1" as="geometry" />
        </mxCell>
        <mxCell id="FArzSYG2MaIiURq2nYFA-91" value="" style="endArrow=classic;html=1;rounded=0;" edge="1" parent="1">
          <mxGeometry width="50" height="50" relative="1" as="geometry">
            <mxPoint x="220" y="45" as="sourcePoint" />
            <mxPoint x="280" y="45" as="targetPoint" />
          </mxGeometry>
        </mxCell>
        <mxCell id="FArzSYG2MaIiURq2nYFA-92" value="&quot;calls&quot;" style="text;html=1;align=center;verticalAlign=middle;whiteSpace=wrap;rounded=0;" vertex="1" parent="1">
          <mxGeometry x="210" y="45" width="80" height="30" as="geometry" />
        </mxCell>
        <mxCell id="FArzSYG2MaIiURq2nYFA-93" value="" style="endArrow=classic;dashed=1;html=1;dashPattern=1 3;strokeWidth=2;rounded=0;endFill=1;" edge="1" parent="1">
          <mxGeometry width="50" height="50" relative="1" as="geometry">
            <mxPoint x="220" y="100" as="sourcePoint" />
            <mxPoint x="280" y="100" as="targetPoint" />
          </mxGeometry>
        </mxCell>
        <mxCell id="FArzSYG2MaIiURq2nYFA-94" value="&quot;contains&quot;" style="text;html=1;align=center;verticalAlign=middle;whiteSpace=wrap;rounded=0;" vertex="1" parent="1">
          <mxGeometry x="210" y="100" width="80" height="30" as="geometry" />
        </mxCell>
        <mxCell id="FArzSYG2MaIiURq2nYFA-95" value="" style="endArrow=classic;dashed=1;html=1;rounded=0;endFill=1;" edge="1" parent="1">
          <mxGeometry width="50" height="50" relative="1" as="geometry">
            <mxPoint x="220" y="150" as="sourcePoint" />
            <mxPoint x="280" y="150" as="targetPoint" />
          </mxGeometry>
        </mxCell>
        <mxCell id="FArzSYG2MaIiURq2nYFA-96" value="&quot;instance of&quot;" style="text;html=1;align=center;verticalAlign=middle;whiteSpace=wrap;rounded=0;" vertex="1" parent="1">
          <mxGeometry x="210" y="150" width="80" height="30" as="geometry" />
        </mxCell>
      </root>
    </mxGraphModel>
  </diagram>
</mxfile>
